<?xml version="1.0" encoding="UTF-8"?>
<svg version="1.1" xmlns="http://www.w3.org/2000/svg" width="149" height="152">
<path d="M0 0 C49.17 0 98.34 0 149 0 C149 50.16 149 100.32 149 152 C99.83 152 50.66 152 0 152 C0 101.84 0 51.68 0 0 Z " fill="#FEFEFE" transform="translate(0,0)"/>
<path d="M0 0 C0.80590576 0.01538818 1.61181152 0.03077637 2.44213867 0.04663086 C16.7433332 0.50510319 29.34174341 5.19820364 39.875 15.125 C52.08167091 28.20499371 55.63403013 42.62548252 55.703125 60.00390625 C55.70882507 61.11555649 55.71452515 62.22720673 55.72039795 63.37254333 C55.72982093 65.71669571 55.73637116 68.06086117 55.74023438 70.4050293 C55.74997543 73.99095545 55.78103921 77.5763167 55.8125 81.16210938 C55.81902723 83.44270494 55.8242788 85.72330459 55.828125 88.00390625 C55.8404718 89.07484024 55.8528186 90.14577423 55.86553955 91.24916077 C55.83753263 100.59364965 55.83753263 100.59364965 52.5 104.4375 C49.65916359 105.85791821 47.64522722 105.75202272 44.5 105.4375 C42.19724444 103.5704009 40.82176129 102.08102259 39.5 99.4375 C39.41301772 96.52050726 39.38448077 93.62767452 39.40234375 90.7109375 C39.4037587 89.84812164 39.40517365 88.98530579 39.40663147 88.09634399 C39.41223812 85.3350277 39.42479173 82.57379188 39.4375 79.8125 C39.44251414 77.9427095 39.4470772 76.07291774 39.45117188 74.203125 C39.46220971 69.61455223 39.4794788 65.02603977 39.5 60.4375 C38.24751465 60.45119629 36.9950293 60.46489258 35.70458984 60.47900391 C22.86310338 60.61942927 10.80320373 53.33723605 1.66796875 44.81640625 C-8.02113196 34.18458223 -12.85741974 21.03972607 -13.03125 6.7421875 C-11.43889806 -0.16580987 -6.09294249 -0.17599451 0 0 Z " fill="#198240" transform="translate(29.5,28.5625)"/>
<path d="M0 0 C0.7336377 -0.02618408 1.46727539 -0.05236816 2.22314453 -0.0793457 C5.838719 -0.09050233 8.07987129 0.2768917 11.23046875 2.09375 C14.25400993 5.5091234 13.88515792 7.77916796 13.66796875 12.17578125 C11.75407996 26.82507953 5.40829765 39.82287934 -6.06640625 49.28515625 C-14.41751739 55.44067009 -22.40221421 58.70740092 -32.75 59.375 C-32.95753906 58.43140625 -33.16507813 57.4878125 -33.37890625 56.515625 C-35.8905059 45.8034843 -39.51221844 36.08888756 -47.75 28.375 C-44.41642722 18.53218773 -35.09240436 10.75824393 -26.12109375 5.97265625 C-17.34325626 1.76075926 -9.6610412 0.20975571 0 0 Z " fill="#17813E" transform="translate(123.75,13.625)"/>
</svg>
